<?xml version="1.0" encoding="UTF-8"?>
<svg viewBox="0 0 720 270" xmlns="http://www.w3.org/2000/svg">
 <defs>
  <radialGradient id="a" cx="233.69" cy="250.59" r="38.571" gradientTransform="matrix(.25656 .25162 -.46511 .47424 75.043 307.52)" gradientUnits="userSpaceOnUse">
   <stop stop-color="#73490f" offset="0"/>
   <stop stop-color="#73490f" stop-opacity="0" offset="1"/>
  </radialGradient>
 </defs>
 <g transform="matrix(.90214 .43144 -.43144 .90214 212.83 -216.16)" fill-rule="evenodd">
  <path d="m47.117 443.1 75.758-90.91 145.14-138.76s39.409-50.878 59.012-70.176c27.265-26.842 98.884-80.543 98.884-80.543s-69.312 55.601-95.694 82.935c-6.6166 6.8552-19.936 24.721-19.936 24.721s41.611-26.741 58.214-39.873c13.947-11.031 43.86-39.873 43.86-39.873s-31.247 34.678-46.252 47.847c-20.822 18.274-53.546 36.519-74.163 55.024-12.851 11.534-39.075 42.265-39.075 42.265s31.305-17.494 43.86-26.316c24.763-17.4 78.15-63.796 78.15-63.796s-51.368 50.541-75.758 69.378c-18.487 14.278-65.391 42.265-65.391 42.265l-86.125 85.328-75.758 86.125 48.645-23.924 59.012-57.417 59.809-47.05 75.089-70.914 67.655-67.045s25.851-36.467 39.075-50.24c33.626-35.021 123.61-104.47 123.61-104.47s-86.504 70.866-118.82 106.06c-8.0903 8.8109-23.924 31.898-23.924 31.898s38.017-30.63 54.227-43.86c20.409-16.657 67.784-55.822 67.784-55.822s-50.485 47.789-72.568 67.784c-23.123 20.936-67.449 50.413-83.222 74.366 25.277-4.7805 58.421-30.146 79.235-44.062 37.254-24.909 114.04-96.492 114.04-96.492s-77.632 80.643-116.43 108.45c-22.967 16.464-82.935 44.657-82.935 44.657l-75.758 66.986-106.86 96.492-84.53 75.758-50.24 6.3796 2.3924-3.1898z" fill="#f4ea89"/>
  <path d="m40.044 446.96-8.9089 45.101s46.57-19.422 64.589-31.181c22.623-14.763 49.168-39.582 68.487-58.465 21.15-20.673 65.703-73.498 65.703-73.498s44.178-37.651 62.919-54.01c23.324-20.359 49.044-47.457 77.182-68.503 11.655-8.7176 40.084-25.959 51.44-35.062 18.617-14.924 55.681-56.794 55.681-56.794s-41.995 40.13-61.805 55.124c-14.373 10.878-47.292 33.514-50.669 32.295-4.4541-1.6083 5.1287-19.036 9.4657-26.17 9.2112-15.151 40.09-43.431 40.09-43.431s-36.305 29.799-48.442 45.658c-8.175 10.683-21.159 39.533-21.159 39.533l-55.124 47.885s-43.88 42.775-64.033 59.578c-18.243 15.212-44.187 33.467-63.476 47.328-12.869 9.2478-43.431 30.067-43.431 30.067s25.829-26.407 37.306-37.306c9.9488-9.4475 23.783-21.428 33.965-30.624 21.064-19.025 70.157-63.476 70.157-63.476l67.373-60.135-70.714 57.908s-51.55 42.279-72.385 61.805c-12.411 11.632-39.533 40.647-39.533 40.647s9.2556-17.745 14.477-24.499c15.677-20.279 60.237-60.591 60.237-60.591s-56.143 50.316-69.703 65.603c-9.401 10.598-18.616 27.619-28.954 37.306-9.5673 8.9653-36.192 24.499-36.192 24.499l30.067-39.533 69.601-64.589s33.455-33.629 50.112-45.101c6.3374-4.3644 16.403-7.4609 22.829-11.693 15.755-10.375 48.442-40.09 48.442-40.09s-58.189 45.427-64.033 43.431c-6.3111-2.1556 4.9889-14.843 8.3521-20.602 4.7361-8.1099 19.488-24.499 19.488-24.499s-21.062 21.063-29.511 30.624c-8.9654 10.146-19.124 25.213-28.397 35.079-30.121 32.046-108.02 99.111-108.02 99.111s21.723-31.846 32.852-43.988c15.428-16.832 56.794-50.669 56.794-50.669s-42.443 31.845-58.465 47.885c-12.5 12.515-25.74 32.275-37.306 45.658-11.983 13.866-30.298 30.372-41.204 45.101-5.6596 7.6439-16.147 27.283-16.147 27.283z" fill="#efdd59"/>
  <path d="m14.081 496.44c-1.1757-3.5272 2.3514-25.866 2.3514-25.866 6.0092-7.9688 11.33-16.544 18.028-23.906 10.415-11.449 22.208-21.686 33.312-32.528l38.407-47.029-30.961 40.366 105.03-95.625c-45.185 41.468-54.345 53.561-81.517 80.341-11.235 13.847-36.82 42.154-33.704 41.542 4.1998-0.82497 37.101-30.569 55.651-45.853 15.154-12.149 25.893-18.089 39.919-31.459 22.291-21.248 21.542-33.023 108.38-96.229-53.467 37.121-94.859 82.427-95.002 86.146-0.11823 3.074 36.485-28.079 54.867-41.934 25.642-19.327 51.471-38.407 77.206-57.61-27.303 21.947-54.441 44.102-81.909 65.84-21.391 16.929-43.67 32.768-64.665 50.164-20.155 16.7-52.557 44.648-58.786 52.124-2.9151 3.4982 21.343-12.147 31.353-19.203 29.834-21.031 58.786-43.371 88.179-65.057-19.857 15.807-40.225 31.031-59.57 47.421-8.8725 7.517-17.047 15.891-25.082 24.298-6.0737 6.3549-11.496 13.325-17.244 19.987 18.681-14.109 37.86-27.611 56.043-42.326 12.648-10.236 24.298-21.686 36.447-32.528 0 0 38.407-43.502 44.286-48.597s48.988-43.502 48.988-43.502c-20.771 21.163-60.268 58.64-62.313 63.489-1.4816 3.5118 35.174-24.771 51.732-38.407 16.754-13.798 32.136-29.262 48.205-43.894-17.766 18.158-51.125 51.893-71.589 66.946-13.579 9.9763-68.322 59.641-69.889 60.424s-28.609 32.92-28.609 32.92c-12.149 8.23-35.26 22.761-36.447 24.69-0.90291 1.4672 20.118-9.667 30.177-14.501-18.028 12.41-36.785 23.895-54.083 37.231-12.356 9.5255-23.939 20.251-34.88 31.353-6.8253 6.9257-10.394 15.529-18.42 22.731-9.7821 8.7778-29.262-1.3063-43.894-1.9595z" fill="#f0b015"/>
  <path d="m18.948 508.14c-8.6551-7.7818-10.808-25.003-4.711-34.917 3.3463-5.441 7.0538-7.6125 13.561-14.912s9.04-13.752 14.705-18.896c25.818-23.442 46.868-42.077 69.557-62.906 11.12-10.208 21.985-20.692 32.977-31.037-10.9 11.085-29.011 27.946-32.7 33.254-1.5756 2.2667 11.27-7.0204 16.904-10.531-14.687 11.916-40.808 31.913-44.062 35.749-1.9189 2.2616 19.029-11.639 28.543-17.459-16.165 12.563-33.382 24.128-48.496 37.688-4.6538 4.1753-12.979 15.056-10.808 15.519 3.4635 0.73812 20.173-6.0523 27.712-11.916 4.9312-3.8353 5.2987-12.437 9.6992-17.181 7.4233-8.0033 17.775-13.435 25.772-21.061 5.9511-5.6753 10.42-12.844 16.073-18.844 4.8772-5.1766 10.346-9.7916 15.519-14.687l-24.387 27.158c6.7433-4.8034 13.625-9.438 20.23-14.41 1.6162-1.2167 2.956-2.7712 4.4339-4.1568-2.0322 2.4017-3.6994 5.1815-6.0966 7.2051-11.828 9.9849-24.387 19.214-36.58 28.821 3.7873-1.5704 7.8082-2.7175 11.362-4.7111 4.0209-2.2556 7.5746-5.3576 11.362-8.0365-4.2492 3.6949-8.1347 7.9287-12.748 11.085-4.1626 2.8481-10.133 3.4436-13.579 6.928-4.8675 4.9216-13.323 17.269-11.362 18.29 2.473 1.288 17.145-6.5178 24.664-11.362 6.2452-4.0237 10.882-10.397 16.627-15.242 11.344-9.5655 23.093-18.659 34.64-27.989-10.808 9.6992-22.401 18.7-32.423 29.098-4.7578 4.9362-6.8068 12.426-11.916 16.904-9.8551 8.6384-21.985 14.965-32.977 22.447l-26.326 23.832-3.3254 10.531c5.9119-5.1729 11.42-10.868 17.736-15.519 14.007-10.314 29.299-18.972 43.231-29.375 6.8522-5.1163 12.399-11.907 19.121-17.181 5.2862-4.1476 11.995-6.5654 16.904-11.085 6.7301-6.1959 12.009-14.041 18.013-21.061-5.6348 7.4822-10.519 15.76-16.904 22.447-3.4059 3.5666-8.3136 5.5424-12.47 8.3136 5.7272-2.5864 11.946-4.4103 17.181-7.7594 5.0175-3.2094 9.0526-7.9441 13.579-11.916-4.4339 4.8034-8.0651 10.67-13.302 14.41-7.049 5.035-16.412 6.9115-23.555 11.916-8.283 5.803-15.149 13.671-22.724 20.507 4.4339-2.4941 9.0198-4.7466 13.302-7.4823 5.6944-3.6381 11.085-7.7594 16.627-11.639-5.8195 4.8034-11.253 10.169-17.459 14.41-6.6339 4.534-14.686 7.0725-21.061 11.916-7.85 5.964-14.682 13.41-21.615 20.507-4.7983 4.9117-8.6016 10.951-13.579 15.519-1.7659 1.6208-5.3837 3.1007-8.5907 6.6509-2.6402 2.9227-7.3718 16.636-14.133 20.784-8.6942 5.3339-24.561 8.2053-32.146 1.3856z" fill="#ee920e"/>
  <path d="m16.433 474.69c-7.1613 7.1613-5.6286 23.895 0.78381 30.373 5.7523 5.811 22.563 8.7702 27.238 0.97978l19.399-32.332c4.2302-7.0503 12.276-8.0074 17.832-13.913 3.7848-4.0231 3.7489-11.229 10.19-15.872 25.686-18.519 32.463-24.102 65.449-50.556-32.267 24.951-57.86 38.942-77.99 57.219-5.4098 4.9117-10.843 9.7977-16.264 14.697l12.149-22.927 5.2908-6.8584c11.365-5.6827 24.014-9.604 34.096-17.048 10.885-8.0364 11.953-15.088 28.805-29.393-13.325 8.8179-21.514 19.766-33.508 27.629-7.7315 5.069-17.113 7.4463-25.67 11.169l-24.494 12.541-11.169 12.737-9.0139 5.6827s6.4665-11.365 7.0543-12.149 3.9191-8.0341 3.9191-8.0341c19.987-16.134 18.812-19.334 40.562-34.88-17.897 11.953-36.774 25.082-50.164 39.975l-6.6624 13.129-17.832 17.832z" fill="#e57e0f"/>
  <path d="m21.527 501.73c0.55252 3.241-0.40792 7.6108 1.1757 9.7977 1.1597 1.6015 4.6917 1.5951 7.0543 1.5676 3.2547-0.03783 6.734-0.59773 9.7977-1.7636 4.3172-1.6428 9.1589-3.4483 12.345-6.6624 4.2601-4.2974 6.6624-10.582 9.9936-15.872 2.0902-3.0699 3.9853-6.3014 6.2705-9.2098 1.3073-1.6638 2.8976-3.1275 4.5069-4.5069 2.0484-1.7558 4.3556-3.2101 6.4665-4.8988 2.1348-1.7078 4.1803-3.5272 6.2705-5.2908l8.622-8.0341 21.163-18.812-33.832 27.983c-3.0945 2.4017-6.1958 4.7947-9.2835 7.2051-4.0712 3.1782-7.8364 6.8323-12.193 9.5607-5.1576 3.2298-12.236 7.721-16.35 8.3136-1.3363 0.19252-1.2978-4.6336 0-5.9581 5.4454-5.5573 13.487-9.7916 20.23-14.687l7.7594-6.2352 5.681-3.6026 3.6026-2.9098c1.2009-1.8475 2.818-3.5231 3.6026-5.5424 0.98173-2.5267 0.81439-3.2302 5.3702-6.3332 2.7712-2.0784 6.1303-4.0588 8.9015-6.1372l12.748-9.9763-27.851 19.676-4.2954 6.6509-10.392 6.6509 2.6326-5.5424 2.6326-3.3254 19.537-18.429-17.874 14.965c-2.4479 1.478-7.1192 5.1277-7.3437 4.4339-0.2836-0.87661 9.4993-15.971 12.332-18.29 4.5573-3.7313 10.438-6.0043 15.657-9.0064-5.9581 3.1869-13.085 5.0518-17.874 9.5607-6.2492 5.8831-9.0499 15.772-15.242 21.615-3.646 3.4406-8.6327 4.6467-14.272 6.2352 1.7215-5.2346 3.556-8.9726 6.3402-12.764 2.0655-2.813 5.8257-4.4559 8.2087-7.0498 2.8362-3.0871 4.775-7.1545 8.0365-9.6992 5.1445-4.0138 11.454-6.6509 17.181-9.9763-20.159 9.9486-18.955 7.3128-27.851 11.916-2.9747 1.5394-5.6302 3.942-7.7594 6.5123-2.9976 3.6187-4.3738 8.7175-7.6208 12.055-3.4038 3.4984-8.2212 5.6348-12.332 8.4522l3.8797-6.2352s9.4459-9.6012 10.139-10.155 1.6233-7.0272 3.6808-8.7908c4.0456-3.4676 10.105-9.4586 14.031-13.061-4.8958 4.0644-10.445 7.5784-14.687 12.193-2.5934 2.8212-3.3477 7.2143-5.8195 10.115-2.0545 2.4108-5.1729 3.8797-7.7594 5.8195 1.8475-3.5102 2.6261-6.7605 4.8566-10.041 1.6656-2.4494 8.8609-9.4963 8.3067-9.2192s-9.1015 8.1217-10.669 10.669c-2.2086 3.589-3.303 7.9218-5.8195 11.223s-6.6907 5.3224-9.2835 8.5907c-2.9033 3.6597-6.8866 7.766-7.2051 12.193-0.55092 7.658 3.2252 16.017 4.5968 24.063z" fill="#dc6b0f"/>
  <path d="m38.617 451.15c-2.1026 1.9178-3.392 2.7229-5.198 4.8972-2.9512 3.5528-4.8652 8.0176-7.8979 11.5-2.8791 3.3065-7.235 5.4431-9.8378 8.8678-1.7849 2.3486-3.3254 5.5641-3.3254 8.4522 0 4.317 1.9404 8.8696 3.3254 13.163 0.92431 2.8654 1.3397 7.0015 3.6026 8.3136 3.2333 1.8748 8.8325 2.2344 12.886 1.247 6.7541-1.6452 16.673-6.4495 19.537-9.145 1.0619-0.99944-7.832-0.48815-7.7594-1.9398 0.11216-2.2432 5.6169-6.0333 8.3136-9.145 1.5062-1.738 2.4083-4.2399 4.2954-5.4039 3.055-1.8844 7.0383-2.4466 10.531-3.7411 1.8654-0.69148 3.9773-1.099 5.5424-2.217 1.3447-0.96047 1.8833-2.967 3.1869-4.0182 1.56-1.2581 9.7217-8.1998 12.193-10.531 6.4424-6.0752 13.302-11.731 19.953-17.597-13.455 10.934-17.441 13.4-24.525 19.398-4.1086 3.4792-7.3869 8.116-11.639 11.223-1.7521 1.2804-4.2492 1.2932-6.3738 1.9398l-6.7894 2.0784 5.9581-7.4823c1.8937-1.8936 3.5211-4.1438 5.681-5.681 2.9669-2.1116 6.8735-3.0047 9.6992-5.2653 2.7167-2.1734 4.3007-5.7107 6.928-8.0365 3.0075-2.6624 5.7691-4.7166 9.9763-6.928-4.9238 2.1833-9.1773 5.1803-13.302 8.3136-1.8336 1.393-3.0483 3.5102-4.5725 5.2653 1.8013-3.1407 2.3773-5.6113 4.4241-8.5403 0.63206-0.9045 2.7349-2.4634 3.6124-2.9602-1.7719 0.53183-3.3887 1.4333-4.4339 2.7712-2.4188 3.096-3.9721 7.0204-5.9581 10.531-2.2632 1.247-4.6508 2.3078-6.7894 3.7411-2.2029 1.4764-4.1568 3.3254-6.2352 4.9882l-2.0784 2.0784 1.9398-4.2954c1.5703-1.4318 3.4324-2.6332 4.711-4.2954 1.4926-1.9404 2.1321-4.5377 3.6026-6.5123 1.7626-2.3669 3.5745-4.2436 6.0966-6.5123-2.4129 1.5423-4.6713 3.86-6.6509 6.0966-1.5768 1.7816-2.3772 4.2441-4.0182 5.9581-2.5158 2.6276-5.6348 4.711-8.4522 7.0666l-4.5725 3.8797-8.4522 4.5725-7.6208 2.217c2.3555-2.3093 4.655-4.6788 7.0666-6.928 2.3919-2.2309 4.6584-4.698 7.3437-6.5123 2.4414-1.6496 5.6344-2.1817 8.0365-3.8797 2.9556-2.0893 5.3577-4.9882 8.0365-7.4822-2.8636 2.3555-5.4534 5.1893-8.5907 7.0666-2.4974 1.4944-5.5424 2.0322-8.3136 3.0483 1.9398-2.217 3.7075-4.6181 5.8195-6.6509 1.5829-1.5236 3.5102-2.6788 5.2653-4.0182-2.5865 1.478-5.3571 2.6989-7.7594 4.4339-2.5859 1.8676-4.6265 4.494-7.2051 6.3738-2.3634 1.7228-5.0805 2.956-7.6208 4.4339-1.8475 1.5242-5.3233 4.9231-5.5424 4.5725-0.24276-0.38842 2.7712-4.5263 4.1568-6.7894 1.5704-2.1708 2.7601-4.737 4.711-6.5123 2.6678-2.4276 6.4256-3.6894 9.145-6.0966 2.9154-2.5809 4.5459-6.7256 7.7594-8.8679 6.6243-4.4162 11.759-7.3031 21.754-10.808-4.6187 1.478-9.5319 2.3584-13.856 4.4339-3.7586 1.8041-7.1232 4.5728-10.392 7.2051-1.9503 1.5706-3.5102 3.6026-5.2653 5.4038 1.1085-2.725 1.7021-5.7956 3.3254-8.175 1.7482-2.5625 4.5263-4.4339 6.7894-6.6509-2.8174 2.3093-6.1725 4.1662-8.4522 6.928-2.5238 3.0577-3.4396 7.4779-5.9581 10.531-2.054 2.4897-5.5315 3.7393-7.7594 6.0966-1.7442 1.8456-2.7712 4.3416-4.1568 6.5123-2.217 1.2932-5.6642 4.0206-6.6509 3.8797-0.6298-0.08996 1.2009-3.0483 1.8013-4.5725 2.4017-2.5403 4.3135-6.0603 7.2051-7.6208-2.5165 0.00833-4.837 4.3276-6.8637 5.1198 1.7089-2.1708 3.5558-5.4038 5.6166-7.1982 3.2968-2.8705 7.1016-5.2821 10.946-7.4822-3.3409 0.82015-5.898 3.4039-7.9652 4.0281 1.6921-3.0694 5.5664-4.462 7.1338-6.6607 1.758-2.4662 0.42536-4.3667 4.0182-8.3136-3.0288 2.3961-3.2346 5.2568-5.2653 7.4822-1.3409 1.4695-3.2331 2.4017-4.8496 3.6026 1.478-1.6165 0.99641-2.3513 4.4339-4.8496-2.5683 0.76412-5.3105 4.6876-7.4109 6.6033z" fill="#d3540f"/>
  <path d="m14.669 486.84c0.45722-2.6454 0.36338-5.5228 1.3717-7.9361 0.9839-2.3549 2.813-4.4929 4.6049-6.3685 1.7026-1.7822 4.0689-2.9186 5.8786-4.6049 1.0643-0.99171 1.8289-2.2861 2.7434-3.4292-0.88179 1.5023-1.5659 3.1713-2.6454 4.5069-0.84737 1.0484-2.1908 1.6779-3.1353 2.6454-0.39458 0.4042-0.58786 0.97976-0.88179 1.4696 1.6003-0.42457 3.3946-0.4874 4.8009-1.2737 1.631-0.91196 2.7679-2.6916 4.311-3.8211 1.6248-1.1893 3.4618-2.0902 5.1928-3.1353-0.84913 0.84913-1.8472 1.591-2.5474 2.5474-0.63877 0.87247-0.97977 1.9595-1.4696 2.9393 2.2861-1.339 4.4653-2.9242 6.8584-4.017 1.7546-0.80133 3.9319-0.74003 5.5847-1.6656 1.6131-0.90334 2.8087-2.5474 4.213-3.8211-1.1104 1.339-2.077 2.8366-3.3312 4.0171-0.96659 0.90973-2.3124 1.401-3.3312 2.2535-0.58152 0.48658-0.97977 1.1757-1.4697 1.7636 1.1104-0.35924 2.2646-0.60944 3.3312-1.0777 2.9504-1.2953 5.6432-3.324 8.7199-4.213 1.32-0.3814 3.3639-0.65319 7.8382-1.5676-6.3358 1.8289-8.1886 3.1402-9.9936 4.311-1.8201 1.1806-3.192 3.0352-4.8988 4.409-0.97119 0.7817-2.0902 1.3717-3.1353 2.0575l0.39191 4.311 4.115 2.9393c1.8942-1.7309 3.6021-3.7479 5.6827-5.1928 1.4466-1.0046 3.567-1.0673 4.8988-2.1555 1.3462-1.1 1.8904-3.124 3.1353-4.409 1.7925-1.8503 3.9844-3.3312 5.9766-4.9968l-3.6252 4.311c1.0777-0.32659 2.2318-0.48523 3.2332-0.97977 1.6439-0.81182 3.0543-2.1232 4.7029-2.9393s3.4618-1.3064 5.1928-1.9595c-3.9517 2.1228-5.2154 2.9893-6.5644 4.6049-1.4146 1.6941-2.9245 3.3869-4.6049 4.8009-0.99767 0.83949-2.4905 1.0845-3.4292 1.9595-0.98819 0.9212-1.5676 2.2861-2.3514 3.4292l-3.9191 2.9393-4.8988 6.0746-4.409 4.409-3.1353 3.5272 5.8786-0.68584c1.3064-0.65319 2.6756-1.1984 3.9191-1.9595 2.5449-1.5577 4.9642-3.3312 7.4462-4.9968 2.2208-2.2861 4.1418-5.027 6.6624-6.8584 1.6597-1.2059 4.1599-1.1874 5.8786-2.2535 0.86133-0.53424 1.241-1.6983 1.8616-2.5474-0.75116 1.339-1.1319 3.0691-2.2535 4.017-1.6218 1.3708-4.2107 1.6599-5.9766 2.9393-1.4347 1.0394-2.4168 2.678-3.6251 4.017-3.5598 5.8786-6.6021 12.199-10.679 17.636-1.8012 2.4016-4.3549 4.4949-6.9564 5.8786-2.0035 1.0656-4.5568 1.4248-6.8584 1.4696-2.728 0.05319-5.591-0.43752-8.2301-1.1757-2.0312-0.56816-3.8498-1.8374-5.7806-2.7434-2.3148-1.0862-5.6197-1.4345-6.9564-3.2332-1.3087-1.7611-0.18817-5.1487-0.97977-7.4462-0.54742-1.5888-2.6199-2.6651-3.0373-4.213-0.36639-1.3587 0.45723-3.0046 0.68584-4.5069z" fill="#cb440e"/>
  <path d="m35.636 468.42c-2.1555 1.0777-4.409 2.8413-6.2705 4.8009-1.3104 1.3794-2.4168 2.9393-3.6252 4.409 0 0-2.7434 5.6827-3.1353 5.6827s-2.9393-3.9191-2.9393-3.9191l-0.19596-1.5676-1.8616 4.0171-1.6656 5.1928-1.4696-7.0543c-0.45723 1.9269-1.2084 2.5801-1.3717 5.7806-0.06532 2.0902 0.94711 3.5925 1.5676 4.213l3.4292 3.6252 2.4494 15.382c0.19595 1.7636 1.2737 2.2535 2.0575 2.9393 0.52254-2.2862 0.75116-5.454 3.0373-5.0948l4.311-2.0575 5.2908 4.0171 1.9595 1.5676c1.8289 0.81647 4.2457-0.32657 7.5442-1.9595-2.1555-0.84914-2.8412-1.6599-3.5272-2.8413-0.48971-0.84338-0.68888-2.7779 0-3.2332 1.238-0.81834 3.9286-0.09805 5.7806-0.58787 2.0996-0.55526 4.4201-1.2565 6.0746-2.5474 1.3175-1.0279 1.8951-2.9387 2.8413-4.409l3.5272-5.4867c-2.5801 1.9269-4.9383 4.3695-7.7402 5.7806-1.6724 0.84233-3.7884 0.65317-5.6827 0.97977l2.3514-8.426c1.7962-1.7309 3.3332-3.842 5.3887-5.1928 2.5168-1.6539 5.5085-2.6538 8.328-3.8211 2.3079-0.95551 4.7029-1.6983 7.0543-2.5474-1.8289 0.35925-3.66 0.96901-5.4867 1.0778-0.91659 0.05456-2.7854 0.01214-2.7434-0.58786 0.08854-1.2616 2.0148-3.385 3.1353-4.9968 0.74112-1.0662 1.633-2.0249 2.4494-3.0373-1.7636 1.241-3.7224 2.2728-5.2907 3.7231-1.469 1.3584-2.8967 3.3303-4.5069 4.409-1.7537 1.1748-5.2498 2.9095-5.5847 2.3514-0.35099-0.58498 1.0487-2.8712 2.4494-4.7029 1.1467-1.4995 4.0497-3.7884 5.1928-5.2908l-4.9968 3.2332s-4.7594 4.148-5.1928 4.213c-1.9595 0.29393-4.115-3.2332-4.115-3.2332-1.9922-0.29393-8.1647-0.94711-10.582 0 0.35925-1.4696 1.1104-3.2332 1.7636-4.8009z" fill="#c1340e"/>
  <path d="m29.124 474.34c-1.4116 1.1582-3.0239 2.4016-4.711 3.0483-1.084 0.41554-2.4017 0.09237-3.6026 0.13856-0.83136 1.0161-1.5305 2.1811-2.4941 3.0483-0.88393 0.79553-2.0322 1.2932-3.0483 1.9398l0.13856 4.2954-0.83136 4.711c0.36949 1.5242 0.89069 3.0261 1.1085 4.5725 0.24407 1.7329 0.18475 3.5102 0.27712 5.2653 1.6627 0.6928 3.6059 1.0485 4.9882 2.0784 0.97324 0.72516 1.3856 2.1246 2.0784 3.1869 0.87755-0.04619 1.7742-0.27064 2.6326-0.13854 1.5433 0.23742 3.0483 0.83136 4.5725 1.247l3.7411-1.5242 3.6026 0.69282 2.9098-1.247c0.50806-0.92376 0.74565-2.1446 1.5242-2.7712 1.1152-0.89756 2.7712-1.2009 4.1568-1.8013 0.18474-1.1547 0.00241-2.5149 0.55423-3.464 0.60285-1.0369 1.9398-1.6627 2.9098-2.4941-0.73899-1.7089-2.0165-3.4084-2.217-5.1267-0.12283-1.0528 0.83137-2.1246 1.247-3.1869l-2.0784-4.1568c0.13855-1.5242 0.85902-3.2671 0.41568-4.5725-0.38802-1.1425-2.4316-1.6474-2.9098-2.7712-0.44553-1.047-0.60043-1.6627 0.13856-3.7411-3.0021 0.96992-5.8476 0.82925-9.0064 2.9098-0.71868 0.47334-1.2008-1.5704-1.8013-2.3555l-3.6026 0.83136c-0.23093 0.46187-0.3031 1.0658-0.6928 1.3856z" fill="#b3230c" fill-opacity=".84483"/>
  <path d="m18.675 481.07c-0.72524 0.40993-2.1262-0.23624-3.1893-0.35437 0.41343 0.59062 1.3442 1.2265 1.2403 1.7718-0.13237 0.69497-1.2993 1.2994-1.949 1.949 0.53155 0.70873 1.7075 1.5055 1.5946 2.1262-0.12339 0.67866-1.5356 1.1812-2.3034 1.7718 0.59061 0.70874 1.5965 1.2997 1.7718 2.1262 0.2381 1.1225-0.35437 2.4806-0.53155 3.7208 0.47249 1.2403 1.2741 2.4665 1.4175 3.7208 0.09289 0.81275-0.47249 1.6537-0.70873 2.4806l3.5437 1.4175 0.88592 3.7209c0.70873-0.29532 1.6566-1.1912 2.1262-0.88593 0.71159 0.46256 0.94498 2.1262 1.4175 3.1893 0.64967-0.59066 1.2914-1.8477 1.949-1.7718 0.87801 0.10131 1.7718 1.5356 2.6578 2.3034 1.1222-0.29531 2.2823-1 3.3665-0.8859 1.1602 0.12211 2.2443 1.0631 3.3665 1.5946l2.1262-2.8349 4.4296 0.35435s-2.1648-2.6044-1.4175-3.0121c0.83762-0.45695 2.8349 0.35437 2.8349 0.35437l2.6578-2.1262c-0.35437-0.35437-1.3086-0.85033-1.0631-1.0631 0.64042-0.55503 2.4806-0.82685 3.7208-1.2403l-1.4175-3.1893s2.8349-0.88591 2.4806-2.6578-1.7718-6.3786-1.7718-6.3786c-0.4725 0.41342-1.3339 1.491-1.4175 1.2403-0.15266-0.45798 1.1708-5.3468 0.88592-6.2014-0.42387-1.2716-1.4272-2.4546-2.3034-3.5437-0.56854-0.70669-0.03742-2.6839 2.1262-4.9611-3.4675-1.1573-6.0242-0.35436-7.4417-0.17718s-4.1365 1.607-3.7208-2.4806c-2.1493 1.2896-3.9647 3.2938-6.2014 4.2524-1.4842 0.63607-3.3074 0.35436-4.9611 0.53155-0.82685 0.88591-1.4859 2.1936-2.4806 2.6578-0.77716 0.36266-1.89-0.11813-2.8349-0.17718-0.29531 0.88591-0.25275 2.2999-0.88592 2.6577z" fill="#86140a"/>
  <path d="m20.156 479.58-4.115 4.8988 2.3514 2.9393-1.5676 3.5272-0.58786 4.5069 2.9393 1.9595 1.3717 4.115 3.3312 1.3717 2.1555 3.3312 3.5272-1.3717 2.7434 1.5676 4.8988-1.7636 2.9393 0.39189 0.97977-4.115 5.8786-2.1555-1.9595-1.7636 1.3717-5.8786-2.1555 0.7838-0.78381-7.6422h2.3514l-4.115-5.0948-2.3514 1.1757s-4.115-5.8786-4.8988-5.8786-4.115 1.1757-4.115 1.1757l-3.7231 1.3717-2.7434 1.7636-3.7231 0.78382z" fill="#392408"/>
  <path d="m41.525 479.67-2.4941 13.787 0.48496-12.748 2.0091-1.0392z" fill="#110a02"/>
  <path d="m45.89 491.87-6.928 1.9398 5.3346 5.7502 1.5934-7.6901z" fill="#0f0902"/>
  <path d="m32.172 505.93 8.2443-2.979-13.371-0.41568 5.1267 3.3947z" fill="#1f1304"/>
  <path d="m39.395 484.74-8.8798-4.289-4.7129 10.66 13.593-6.3714z" fill="#291804"/>
  <path d="m25.868 491.17-1.8013 5.1267-7.0666-5.196 1.4549-3.6026 7.413 3.6718z" fill="#1d1103"/>
  <path d="m26.838 502.4-7.3437-5.1267s11.5-2.2862 11.223-2.217-3.8797 7.413-3.8797 7.3437z" fill="#1d1103"/>
  <path d="m20.325 479.88 2.2862 0.55425 1.1085-1.3856-3.3947 0.83136z"/>
  <path d="m26.768 477.25 3.6718 2.9098 1.732-4.7803-5.4038 1.8706z" fill="#241503"/>
  <path d="m20.156 479.58-4.115 4.8988 2.3514 2.9393-1.5676 3.5272-0.58786 4.5069 2.9393 1.9595 1.3717 4.115 3.3312 1.3717 2.1555 3.3312s3.0818-21.724 11.169-28.805c-1.1267-1.4697-2.3514-2.9393-2.7434-2.9393-0.78382 0-4.115 1.1757-4.115 1.1757l-3.7231 1.3717-2.7434 1.7636-3.7231 0.78382z" fill="url(#a)"/>
  <path d="m31.271 495.19 3.0483 7.1358 4.5032-8.3829-2.598-7.6901-4.9535 8.9371z" fill="#291905"/>
  <path d="m196.24 271.65 74.163-75.758c-12.759 14.62-24.73 30.021-38.278 43.86-11.174 11.414-23.924 21.265-35.885 31.898z" fill="#f5f1ca"/>
  <path d="m221.06 288.45c-5.235 3.9163-4.2274 7.2744-0.8942 4.7364 55.676-42.394 143.54-122.01 143.54-122.01s-99.403 84.923-142.65 117.27z" fill="#f5f1ca"/>
  <path d="m297.52 200.68 3.1898-3.9873 43.062-35.088-46.252 39.075z" fill="#8dff8f"/>
  <path d="m204.22 366.55-7.1771 10.367s92.158-80.56 133.17-113.24c13.772-10.972 33.372-24 47.05-35.088 18.566-15.051 59.809-52.632 59.809-52.632s-43.057 36.335-62.201 51.037c-9.1095 6.9958-29.639 24.438-31.101 22.329-1.0451-1.508 35.683-32.397 43.748-43.643-21.992 20.864-39.374 36.728-56.507 52.415-36.918 33.802-126.8 108.45-126.8 108.45z" fill="#d1fff6"/>
  <path d="m421.92 84.648-16.547 17.145 121.81-102.87-105.26 85.726z" fill="#d1f5ff"/>
  <path d="m347.76 136.08-3.5885 5.1834 45.854-39.075-42.265 33.892z" fill="#d1fff6"/>
  <path d="m419.13 152.83c-2.5404 2.5122 3.1207 1.7904 6.3796-1.5949 35.268-36.636 87.986-79.347 139.16-122.01-50.505 38.809-100.1 78.669-145.54 123.61z" fill="#d1fff6"/>
  <path d="m450.63 99.401 3.1898-3.9873 80.144-66.587-83.334 70.575z" fill="#a5c3ff"/>
 </g>
</svg>
